<svg xmlns="http://www.w3.org/2000/svg" xmlns:xlink="http://www.w3.org/1999/xlink" width="500" zoomAndPan="magnify" viewBox="0 0 375 374.999991" height="500" preserveAspectRatio="xMidYMid meet" version="1.0"><defs><clipPath id="8756bc6fb0"><path d="M 112.5 136.6875 L 262.5 136.6875 L 262.5 238 L 112.5 238 Z M 112.5 136.6875 " clip-rule="nonzero"/></clipPath></defs><g clip-path="url(#8756bc6fb0)"><path fill="#5e4f92" d="M 184.742188 237.867188 C 183.75 237.867188 182.761719 237.847656 181.769531 237.808594 C 180.855469 237.773438 180 237.738281 179.175781 237.644531 C 178.351562 237.625 177.375 237.546875 176.136719 237.398438 C 174.832031 237.261719 173.65625 237.097656 172.582031 236.910156 C 172.484375 236.910156 172.375 236.898438 172.324219 236.890625 C 171.03125 236.671875 169.738281 236.417969 168.449219 236.136719 C 167.363281 235.925781 166.273438 235.648438 165.1875 235.367188 C 163.789062 235.019531 162.699219 234.699219 161.691406 234.355469 C 161.015625 234.175781 160.351562 233.960938 159.699219 233.707031 C 158.4375 233.304688 157.320312 232.898438 156.28125 232.460938 C 155.421875 232.121094 154.5625 231.773438 153.707031 231.390625 C 152.292969 230.808594 150.863281 230.113281 149.484375 229.4375 L 148.65625 228.996094 C 147.738281 228.496094 146.8125 228 145.921875 227.484375 C 144.769531 226.828125 143.632812 226.132812 142.5 225.410156 C 141.296875 224.644531 140.050781 223.785156 138.699219 222.78125 C 137.761719 222.09375 136.851562 221.402344 135.941406 220.679688 C 135.039062 219.9375 134.125 219.183594 133.273438 218.425781 L 132.242188 217.492188 C 131.449219 216.761719 130.65625 216.035156 129.871094 215.246094 C 128.925781 214.308594 127.980469 213.324219 127.058594 212.316406 C 126.949219 212.191406 126.863281 212.058594 126.796875 211.910156 C 121.101562 205.621094 116.574219 198.585938 113.214844 190.796875 C 113.027344 190.355469 112.890625 189.902344 112.796875 189.433594 C 112.703125 188.960938 112.660156 188.488281 112.664062 188.007812 C 112.667969 187.53125 112.722656 187.058594 112.824219 186.589844 C 112.929688 186.121094 113.078125 185.667969 113.273438 185.230469 C 113.472656 184.796875 113.710938 184.382812 113.992188 183.996094 C 114.273438 183.609375 114.59375 183.253906 114.949219 182.933594 C 115.304688 182.613281 115.6875 182.332031 116.101562 182.089844 C 116.515625 181.847656 116.949219 181.652344 117.402344 181.5 L 251.546875 137.316406 C 252.386719 137.03125 253.246094 136.925781 254.128906 137.003906 C 254.820312 137.046875 255.488281 137.1875 256.132812 137.429688 C 256.78125 137.671875 257.378906 138 257.925781 138.421875 C 258.472656 138.84375 258.945312 139.335938 259.34375 139.902344 C 259.738281 140.464844 260.046875 141.074219 260.261719 141.730469 C 260.335938 141.90625 260.394531 142.089844 260.441406 142.273438 C 260.683594 143.257812 260.871094 144.246094 261.046875 145.210938 L 261.082031 145.382812 C 261.457031 147.160156 261.746094 149.023438 261.996094 151.214844 C 262.117188 152.308594 262.210938 153.402344 262.300781 154.464844 C 262.375 155.4375 262.40625 156.292969 262.4375 157.148438 C 262.46875 158.125 262.5 159.070312 262.5 160.046875 C 262.5 161.320312 262.46875 162.59375 262.40625 163.863281 C 262.34375 165.136719 262.25 166.402344 262.125 167.671875 C 262 168.9375 261.84375 170.199219 261.65625 171.460938 C 261.472656 172.71875 261.253906 173.972656 261.003906 175.222656 C 260.757812 176.46875 260.476562 177.710938 260.167969 178.945312 C 259.859375 180.179688 259.519531 181.40625 259.152344 182.625 C 258.78125 183.84375 258.382812 185.050781 257.953125 186.25 C 257.527344 187.449219 257.066406 188.636719 256.582031 189.8125 C 256.09375 190.988281 255.578125 192.152344 255.035156 193.300781 C 254.492188 194.453125 253.917969 195.589844 253.320312 196.710938 C 252.71875 197.835938 252.09375 198.941406 251.4375 200.035156 C 250.785156 201.125 250.101562 202.203125 249.394531 203.261719 C 248.6875 204.320312 247.957031 205.359375 247.199219 206.382812 C 246.441406 207.40625 245.660156 208.40625 244.851562 209.390625 C 244.042969 210.375 243.214844 211.339844 242.359375 212.285156 C 241.503906 213.226562 240.628906 214.148438 239.726562 215.050781 C 238.828125 215.949219 237.90625 216.828125 236.964844 217.683594 C 236.019531 218.539062 235.058594 219.371094 234.074219 220.179688 C 233.089844 220.984375 232.089844 221.769531 231.066406 222.527344 C 230.042969 223.285156 229.003906 224.019531 227.945312 224.726562 C 226.886719 225.4375 225.8125 226.117188 224.722656 226.773438 C 223.628906 227.425781 222.523438 228.054688 221.402344 228.65625 C 220.277344 229.257812 219.144531 229.828125 217.992188 230.375 C 216.84375 230.917969 215.679688 231.433594 214.503906 231.921875 C 213.328125 232.410156 212.140625 232.871094 210.941406 233.300781 C 209.746094 233.730469 208.535156 234.128906 207.320312 234.5 C 206.101562 234.871094 204.875 235.210938 203.640625 235.519531 C 202.40625 235.832031 201.164062 236.109375 199.914062 236.359375 C 198.667969 236.609375 197.414062 236.828125 196.15625 237.015625 C 194.894531 237.203125 193.632812 237.359375 192.367188 237.484375 C 191.101562 237.609375 189.832031 237.707031 188.558594 237.769531 C 187.289062 237.832031 186.015625 237.863281 184.742188 237.867188 Z M 172.738281 233.792969 C 172.832031 233.796875 172.921875 233.804688 173.015625 233.816406 C 174.046875 234 175.1875 234.15625 176.488281 234.296875 C 177.652344 234.433594 178.542969 234.507812 179.402344 234.535156 C 180.28125 234.628906 181.054688 234.660156 181.828125 234.691406 C 183.082031 234.738281 184.332031 234.753906 185.585938 234.738281 C 186.835938 234.722656 188.089844 234.679688 189.335938 234.601562 C 190.585938 234.523438 191.835938 234.414062 193.078125 234.273438 C 194.324219 234.132812 195.5625 233.960938 196.800781 233.757812 C 198.035156 233.554688 199.265625 233.320312 200.488281 233.054688 C 201.710938 232.789062 202.929688 232.496094 204.136719 232.167969 C 205.347656 231.84375 206.546875 231.484375 207.738281 231.097656 C 208.929688 230.714844 210.109375 230.296875 211.28125 229.851562 C 212.449219 229.40625 213.609375 228.929688 214.753906 228.425781 C 215.902344 227.921875 217.035156 227.390625 218.15625 226.828125 C 219.273438 226.265625 220.378906 225.679688 221.46875 225.0625 C 222.558594 224.445312 223.632812 223.800781 224.691406 223.128906 C 225.746094 222.460938 226.789062 221.761719 227.808594 221.039062 C 228.832031 220.316406 229.835938 219.570312 230.820312 218.796875 C 231.804688 218.023438 232.769531 217.222656 233.714844 216.402344 C 234.660156 215.582031 235.582031 214.734375 236.484375 213.867188 C 237.386719 213 238.269531 212.109375 239.125 211.195312 C 239.984375 210.28125 240.816406 209.347656 241.628906 208.394531 C 242.4375 207.4375 243.222656 206.464844 243.984375 205.472656 C 244.746094 204.476562 245.484375 203.464844 246.191406 202.433594 C 246.902344 201.402344 247.585938 200.351562 248.246094 199.289062 C 248.902344 198.222656 249.535156 197.140625 250.136719 196.042969 C 250.742188 194.945312 251.316406 193.832031 251.863281 192.707031 C 252.410156 191.582031 252.929688 190.441406 253.417969 189.289062 C 253.910156 188.136719 254.371094 186.972656 254.800781 185.796875 C 255.234375 184.621094 255.636719 183.4375 256.007812 182.242188 C 256.378906 181.042969 256.722656 179.839844 257.03125 178.628906 C 257.34375 177.414062 257.625 176.195312 257.875 174.96875 C 258.125 173.742188 258.34375 172.507812 258.53125 171.269531 C 258.71875 170.03125 258.875 168.789062 259.003906 167.542969 C 259.128906 166.296875 259.222656 165.050781 259.285156 163.796875 C 259.347656 162.546875 259.378906 161.296875 259.378906 160.042969 C 259.378906 159.109375 259.347656 158.191406 259.316406 157.25 C 259.285156 156.441406 259.257812 155.625 259.195312 154.8125 C 259.101562 153.6875 259.011719 152.625 258.886719 151.5625 C 258.652344 149.472656 258.371094 147.699219 258.015625 145.988281 L 257.972656 145.78125 C 257.804688 144.875 257.632812 143.949219 257.410156 143.046875 C 257.371094 142.957031 257.335938 142.863281 257.308594 142.765625 C 257.195312 142.398438 257.027344 142.058594 256.804688 141.742188 C 256.585938 141.425781 256.324219 141.152344 256.019531 140.914062 C 255.71875 140.675781 255.386719 140.492188 255.027344 140.355469 C 254.667969 140.21875 254.292969 140.136719 253.910156 140.113281 C 253.4375 140.070312 252.972656 140.125 252.523438 140.28125 L 118.382812 184.464844 C 117.328125 184.824219 116.570312 185.511719 116.113281 186.527344 C 115.894531 187.011719 115.78125 187.515625 115.777344 188.046875 C 115.773438 188.574219 115.875 189.082031 116.082031 189.566406 C 119.457031 197.378906 124.046875 204.394531 129.847656 210.621094 C 129.960938 210.738281 130.050781 210.875 130.121094 211.023438 C 130.765625 211.710938 131.417969 212.382812 132.074219 213.039062 C 132.835938 213.796875 133.589844 214.496094 134.347656 215.191406 L 135.363281 216.113281 C 136.167969 216.832031 137.050781 217.558594 137.898438 218.257812 C 138.75 218.957031 139.640625 219.605469 140.554688 220.277344 C 141.847656 221.238281 143.03125 222.054688 144.171875 222.773438 C 145.265625 223.472656 146.359375 224.140625 147.480469 224.777344 C 148.351562 225.285156 149.246094 225.765625 150.132812 226.242188 L 150.878906 226.648438 C 152.1875 227.285156 153.570312 227.960938 154.9375 228.519531 C 155.792969 228.898438 156.605469 229.230469 157.449219 229.5625 C 158.4375 229.972656 159.476562 230.351562 160.757812 230.765625 C 161.359375 230.996094 161.964844 231.191406 162.585938 231.359375 C 163.625 231.707031 164.632812 232.003906 165.882812 232.316406 C 166.988281 232.597656 168.019531 232.863281 169.078125 233.070312 C 170.320312 233.351562 171.53125 233.585938 172.738281 233.792969 Z M 172.738281 233.792969 " fill-opacity="1" fill-rule="nonzero"/></g><path fill="#5e4f92" d="M 182.597656 221.953125 C 180.976562 221.953125 179.359375 221.894531 177.742188 221.78125 C 176.128906 221.664062 174.519531 221.492188 172.914062 221.261719 C 171.3125 221.03125 169.71875 220.742188 168.136719 220.398438 C 166.554688 220.054688 164.984375 219.65625 163.429688 219.199219 C 161.875 218.746094 160.339844 218.234375 158.820312 217.671875 C 157.304688 217.105469 155.808594 216.488281 154.332031 215.816406 C 152.859375 215.148438 151.410156 214.425781 149.988281 213.648438 C 148.566406 212.875 147.171875 212.050781 145.808594 211.179688 C 144.441406 210.304688 143.113281 209.386719 141.8125 208.417969 C 140.515625 207.449219 139.25 206.4375 138.023438 205.378906 C 136.796875 204.320312 135.609375 203.222656 134.460938 202.078125 C 133.3125 200.9375 132.207031 199.753906 131.144531 198.535156 C 130.078125 197.3125 129.058594 196.058594 128.085938 194.761719 C 127.109375 193.46875 126.183594 192.144531 125.300781 190.785156 C 124.421875 189.425781 123.589844 188.035156 122.808594 186.617188 C 122.027344 185.199219 121.296875 183.753906 120.617188 182.285156 C 120.523438 182.082031 120.476562 181.871094 120.472656 181.648438 C 120.46875 181.425781 120.511719 181.210938 120.601562 181.007812 C 120.6875 180.800781 120.816406 180.625 120.980469 180.476562 C 121.144531 180.324219 121.332031 180.214844 121.542969 180.144531 L 247.40625 138.683594 C 247.847656 138.542969 248.269531 138.585938 248.675781 138.816406 C 249.078125 139.050781 249.328125 139.394531 249.421875 139.851562 C 249.839844 141.882812 250.167969 143.925781 250.402344 145.984375 C 250.636719 148.042969 250.777344 150.109375 250.820312 152.183594 C 250.867188 154.253906 250.816406 156.324219 250.675781 158.394531 C 250.53125 160.460938 250.296875 162.519531 249.964844 164.566406 C 249.636719 166.609375 249.210938 168.636719 248.699219 170.644531 C 248.183594 172.652344 247.578125 174.632812 246.882812 176.585938 C 246.1875 178.539062 245.402344 180.457031 244.535156 182.335938 C 243.664062 184.21875 242.710938 186.058594 241.671875 187.851562 C 240.636719 189.644531 239.519531 191.390625 238.320312 193.082031 C 237.125 194.773438 235.855469 196.410156 234.511719 197.988281 C 233.164062 199.5625 231.75 201.078125 230.265625 202.523438 C 228.785156 203.972656 227.238281 205.351562 225.628906 206.660156 C 224.023438 207.964844 222.355469 209.199219 220.636719 210.351562 C 218.914062 211.507812 217.144531 212.585938 215.328125 213.578125 C 213.507812 214.574219 211.648438 215.484375 209.746094 216.308594 C 207.847656 217.132812 205.910156 217.871094 203.941406 218.519531 C 197.011719 220.808594 189.894531 221.953125 182.597656 221.953125 Z M 124.207031 182.554688 C 125.066406 184.296875 126.003906 185.992188 127.015625 187.648438 C 128.027344 189.304688 129.113281 190.914062 130.269531 192.472656 C 131.425781 194.035156 132.648438 195.539062 133.941406 196.988281 C 135.230469 198.4375 136.582031 199.828125 138 201.15625 C 139.414062 202.488281 140.882812 203.75 142.414062 204.949219 C 143.941406 206.144531 145.519531 207.273438 147.148438 208.328125 C 148.777344 209.386719 150.449219 210.367188 152.164062 211.273438 C 153.882812 212.179688 155.636719 213.007812 157.425781 213.757812 C 159.21875 214.507812 161.039062 215.179688 162.886719 215.765625 C 164.738281 216.351562 166.609375 216.855469 168.507812 217.277344 C 170.402344 217.695312 172.3125 218.03125 174.238281 218.28125 C 176.164062 218.527344 178.097656 218.691406 180.035156 218.769531 C 181.976562 218.84375 183.914062 218.832031 185.855469 218.738281 C 187.792969 218.640625 189.722656 218.457031 191.644531 218.1875 C 193.570312 217.917969 195.476562 217.5625 197.367188 217.121094 C 199.257812 216.679688 201.125 216.15625 202.96875 215.550781 C 204.8125 214.941406 206.625 214.253906 208.40625 213.484375 C 210.1875 212.714844 211.933594 211.867188 213.640625 210.941406 C 215.347656 210.015625 217.007812 209.015625 218.625 207.941406 C 220.242188 206.867188 221.808594 205.722656 223.324219 204.507812 C 224.835938 203.292969 226.292969 202.015625 227.695312 200.667969 C 229.09375 199.324219 230.433594 197.921875 231.707031 196.457031 C 232.980469 194.992188 234.1875 193.472656 235.328125 191.902344 C 236.46875 190.328125 237.535156 188.710938 238.527344 187.042969 C 239.523438 185.375 240.4375 183.667969 241.28125 181.917969 C 242.121094 180.167969 242.882812 178.382812 243.566406 176.566406 C 244.246094 174.75 244.847656 172.90625 245.363281 171.035156 C 245.882812 169.160156 246.3125 167.273438 246.660156 165.363281 C 247.011719 163.453125 247.273438 161.53125 247.449219 159.597656 C 247.625 157.664062 247.714844 155.726562 247.71875 153.785156 C 247.71875 151.84375 247.636719 149.90625 247.464844 147.972656 C 247.296875 146.039062 247.039062 144.117188 246.699219 142.203125 Z M 203.457031 217.035156 Z M 203.457031 217.035156 " fill-opacity="1" fill-rule="nonzero"/><path fill="#5e4f92" d="M 202.972656 205.453125 C 202.15625 205.453125 201.40625 205.21875 200.730469 204.757812 C 200.261719 204.445312 199.820312 204.097656 199.410156 203.707031 C 199.003906 203.320312 198.628906 202.898438 198.292969 202.445312 C 197.957031 201.992188 197.664062 201.511719 197.414062 201.007812 C 197.160156 200.503906 196.953125 199.980469 196.792969 199.441406 C 196.632812 198.902344 196.519531 198.351562 196.453125 197.789062 C 196.390625 197.230469 196.375 196.667969 196.40625 196.105469 C 196.441406 195.542969 196.523438 194.984375 196.652344 194.4375 C 196.78125 193.886719 196.960938 193.355469 197.183594 192.835938 C 197.414062 192.273438 197.757812 191.785156 198.210938 191.378906 C 198.667969 190.972656 199.1875 190.683594 199.773438 190.519531 C 200.34375 190.359375 200.914062 190.328125 201.496094 190.433594 C 202.078125 190.535156 202.605469 190.757812 203.082031 191.105469 C 204.019531 191.730469 204.824219 192.496094 205.492188 193.402344 C 206.160156 194.308594 206.652344 195.304688 206.96875 196.382812 C 207.300781 197.480469 207.429688 198.597656 207.363281 199.742188 C 207.296875 200.882812 207.039062 201.980469 206.585938 203.03125 C 206.371094 203.570312 206.050781 204.039062 205.621094 204.429688 C 205.195312 204.824219 204.703125 205.105469 204.148438 205.273438 C 203.765625 205.394531 203.375 205.457031 202.972656 205.453125 Z M 200.8125 193.5 C 200.75 193.5 200.683594 193.507812 200.621094 193.523438 C 200.355469 193.601562 200.171875 193.769531 200.070312 194.027344 C 199.914062 194.378906 199.789062 194.746094 199.699219 195.121094 C 199.605469 195.496094 199.546875 195.878906 199.523438 196.265625 C 199.5 196.652344 199.507812 197.035156 199.554688 197.421875 C 199.597656 197.804688 199.675781 198.183594 199.785156 198.554688 C 199.894531 198.925781 200.039062 199.285156 200.210938 199.628906 C 200.386719 199.976562 200.589844 200.304688 200.820312 200.613281 C 201.050781 200.921875 201.308594 201.210938 201.59375 201.476562 C 201.875 201.738281 202.179688 201.976562 202.503906 202.1875 C 202.722656 202.339844 202.964844 202.375 203.21875 202.296875 C 203.449219 202.226562 203.605469 202.078125 203.6875 201.855469 C 204.34375 200.363281 204.4375 198.835938 203.972656 197.273438 C 203.519531 195.746094 202.628906 194.542969 201.300781 193.664062 C 201.15625 193.554688 200.996094 193.5 200.8125 193.5 Z M 200.8125 193.5 " fill-opacity="1" fill-rule="nonzero"/><path fill="#5e4f92" d="M 222.457031 194.246094 C 222.195312 194.242188 221.941406 194.21875 221.6875 194.171875 C 221.132812 194.070312 220.589844 193.925781 220.058594 193.730469 C 219.527344 193.535156 219.019531 193.296875 218.53125 193.015625 C 218.042969 192.730469 217.585938 192.410156 217.152344 192.046875 C 216.722656 191.683594 216.324219 191.285156 215.960938 190.851562 C 215.601562 190.417969 215.277344 189.957031 214.996094 189.46875 C 214.714844 188.980469 214.476562 188.472656 214.285156 187.941406 C 214.09375 187.410156 213.949219 186.867188 213.847656 186.3125 C 213.75 185.757812 213.703125 185.195312 213.703125 184.632812 C 213.691406 184.023438 213.8125 183.441406 214.070312 182.886719 C 214.324219 182.332031 214.691406 181.863281 215.164062 181.476562 C 215.621094 181.105469 216.136719 180.851562 216.707031 180.710938 C 217.28125 180.574219 217.855469 180.570312 218.433594 180.699219 C 219.542969 180.898438 220.585938 181.285156 221.558594 181.855469 C 222.535156 182.425781 223.382812 183.144531 224.101562 184.011719 C 224.839844 184.886719 225.402344 185.863281 225.792969 186.9375 C 226.1875 188.011719 226.382812 189.121094 226.382812 190.265625 C 226.398438 190.84375 226.289062 191.402344 226.054688 191.933594 C 225.816406 192.464844 225.476562 192.917969 225.035156 193.292969 C 224.292969 193.929688 223.433594 194.246094 222.457031 194.246094 Z M 217.601562 183.738281 C 217.429688 183.734375 217.273438 183.789062 217.132812 183.894531 C 216.917969 184.070312 216.8125 184.296875 216.824219 184.574219 C 216.820312 184.960938 216.851562 185.347656 216.914062 185.726562 C 216.980469 186.109375 217.078125 186.480469 217.207031 186.84375 C 217.339844 187.210938 217.5 187.558594 217.691406 187.894531 C 217.886719 188.230469 218.105469 188.546875 218.355469 188.84375 C 218.601562 189.140625 218.875 189.414062 219.171875 189.660156 C 219.46875 189.910156 219.785156 190.128906 220.117188 190.324219 C 220.453125 190.515625 220.804688 190.675781 221.167969 190.808594 C 221.53125 190.9375 221.90625 191.039062 222.285156 191.101562 C 222.546875 191.15625 222.78125 191.09375 222.984375 190.917969 C 223.167969 190.761719 223.257812 190.566406 223.246094 190.324219 C 223.253906 188.695312 222.734375 187.253906 221.683594 186.007812 C 220.664062 184.785156 219.367188 184.035156 217.800781 183.757812 C 217.734375 183.746094 217.667969 183.738281 217.601562 183.738281 Z M 217.601562 183.738281 " fill-opacity="1" fill-rule="nonzero"/><path fill="#5e4f92" d="M 234.925781 175.558594 C 234.386719 175.570312 233.851562 175.535156 233.320312 175.453125 C 232.789062 175.375 232.269531 175.253906 231.757812 175.085938 C 231.246094 174.917969 230.75 174.710938 230.273438 174.460938 C 229.796875 174.210938 229.34375 173.925781 228.917969 173.601562 C 228.488281 173.277344 228.089844 172.917969 227.71875 172.527344 C 227.351562 172.136719 227.015625 171.714844 226.71875 171.269531 C 226.417969 170.820312 226.160156 170.351562 225.9375 169.863281 C 225.71875 169.371094 225.539062 168.867188 225.402344 168.347656 C 225.238281 167.761719 225.207031 167.167969 225.316406 166.566406 C 225.421875 165.964844 225.65625 165.417969 226.015625 164.925781 C 226.363281 164.449219 226.796875 164.074219 227.316406 163.796875 C 227.835938 163.519531 228.390625 163.371094 228.980469 163.347656 C 230.101562 163.257812 231.207031 163.367188 232.289062 163.667969 C 233.375 163.96875 234.375 164.449219 235.292969 165.101562 C 236.226562 165.761719 237.019531 166.558594 237.671875 167.5 C 238.324219 168.4375 238.796875 169.460938 239.085938 170.566406 C 239.25 171.121094 239.289062 171.6875 239.195312 172.257812 C 239.101562 172.832031 238.890625 173.355469 238.554688 173.832031 C 238.210938 174.332031 237.777344 174.730469 237.246094 175.03125 C 236.71875 175.328125 236.152344 175.5 235.546875 175.535156 C 235.339844 175.546875 235.132812 175.558594 234.925781 175.558594 Z M 229.679688 166.445312 C 229.507812 166.445312 229.332031 166.453125 229.15625 166.460938 C 228.894531 166.460938 228.6875 166.566406 228.53125 166.773438 C 228.371094 166.996094 228.328125 167.242188 228.410156 167.503906 C 228.605469 168.257812 228.925781 168.957031 229.367188 169.597656 C 229.808594 170.238281 230.347656 170.78125 230.984375 171.234375 C 231.621094 171.683594 232.3125 172.007812 233.066406 172.214844 C 233.816406 172.417969 234.582031 172.488281 235.355469 172.421875 C 235.625 172.402344 235.835938 172.285156 235.988281 172.0625 C 236.125 171.867188 236.160156 171.652344 236.085938 171.425781 C 235.679688 169.84375 234.8125 168.585938 233.484375 167.640625 C 232.34375 166.832031 231.078125 166.429688 229.679688 166.4375 Z M 229.679688 166.445312 " fill-opacity="1" fill-rule="nonzero"/><path fill="#5e4f92" d="M 177.277344 207.457031 C 176.957031 207.457031 176.640625 207.417969 176.332031 207.34375 C 175.757812 207.203125 175.246094 206.941406 174.789062 206.566406 C 174.335938 206.191406 173.988281 205.734375 173.742188 205.195312 C 173.492188 204.691406 173.289062 204.171875 173.128906 203.632812 C 172.96875 203.089844 172.855469 202.542969 172.789062 201.980469 C 172.726562 201.421875 172.710938 200.863281 172.742188 200.300781 C 172.773438 199.738281 172.855469 199.183594 172.984375 198.632812 C 173.113281 198.085938 173.289062 197.554688 173.511719 197.035156 C 173.734375 196.519531 173.996094 196.023438 174.304688 195.550781 C 174.613281 195.082031 174.957031 194.636719 175.34375 194.226562 C 175.726562 193.816406 176.144531 193.441406 176.59375 193.101562 C 177.046875 192.738281 177.554688 192.488281 178.121094 192.359375 C 178.6875 192.226562 179.253906 192.222656 179.820312 192.351562 C 180.414062 192.480469 180.945312 192.734375 181.421875 193.109375 C 181.898438 193.484375 182.269531 193.945312 182.535156 194.488281 C 182.789062 194.992188 183 195.515625 183.164062 196.054688 C 183.328125 196.59375 183.441406 197.144531 183.511719 197.703125 C 183.578125 198.265625 183.597656 198.824219 183.566406 199.390625 C 183.535156 199.953125 183.457031 200.507812 183.332031 201.058594 C 183.203125 201.609375 183.027344 202.144531 182.808594 202.664062 C 182.585938 203.179688 182.324219 203.675781 182.015625 204.152344 C 181.707031 204.625 181.363281 205.066406 180.976562 205.480469 C 180.59375 205.890625 180.175781 206.269531 179.726562 206.609375 C 179.003906 207.167969 178.1875 207.453125 177.277344 207.457031 Z M 178.992188 195.382812 C 178.816406 195.382812 178.660156 195.4375 178.523438 195.550781 C 177.230469 196.507812 176.394531 197.769531 176.027344 199.339844 C 175.65625 200.90625 175.835938 202.410156 176.5625 203.847656 C 176.65625 204.089844 176.832031 204.242188 177.082031 204.308594 C 177.347656 204.375 177.589844 204.324219 177.808594 204.152344 C 178.117188 203.921875 178.40625 203.664062 178.671875 203.382812 C 178.9375 203.101562 179.175781 202.800781 179.386719 202.476562 C 179.597656 202.152344 179.78125 201.808594 179.933594 201.453125 C 180.085938 201.097656 180.203125 200.730469 180.292969 200.355469 C 180.378906 199.976562 180.429688 199.59375 180.449219 199.207031 C 180.46875 198.820312 180.457031 198.433594 180.40625 198.050781 C 180.359375 197.667969 180.277344 197.289062 180.160156 196.921875 C 180.042969 196.550781 179.898438 196.195312 179.71875 195.851562 C 179.601562 195.609375 179.414062 195.460938 179.152344 195.402344 C 179.097656 195.390625 179.046875 195.382812 178.992188 195.382812 Z M 174.507812 198.984375 Z M 174.507812 198.984375 " fill-opacity="1" fill-rule="nonzero"/><path fill="#5e4f92" d="M 158.496094 198.492188 C 158.175781 198.492188 157.867188 198.453125 157.558594 198.375 C 156.984375 198.238281 156.464844 197.980469 156.011719 197.605469 C 155.554688 197.226562 155.203125 196.769531 154.957031 196.234375 C 154.707031 195.730469 154.5 195.207031 154.339844 194.667969 C 154.179688 194.125 154.066406 193.578125 154.003906 193.019531 C 153.9375 192.457031 153.921875 191.898438 153.953125 191.335938 C 153.988281 190.773438 154.070312 190.21875 154.199219 189.667969 C 154.328125 189.121094 154.503906 188.589844 154.722656 188.070312 C 154.945312 187.554688 155.210938 187.058594 155.519531 186.585938 C 155.824219 186.113281 156.171875 185.671875 156.554688 185.261719 C 156.941406 184.851562 157.355469 184.472656 157.804688 184.132812 C 158.261719 183.769531 158.769531 183.519531 159.339844 183.390625 C 159.90625 183.257812 160.476562 183.257812 161.042969 183.386719 C 161.636719 183.515625 162.171875 183.765625 162.648438 184.140625 C 163.125 184.515625 163.492188 184.976562 163.757812 185.523438 C 164.011719 186.027344 164.222656 186.546875 164.386719 187.089844 C 164.550781 187.628906 164.664062 188.179688 164.734375 188.738281 C 164.800781 189.296875 164.820312 189.859375 164.789062 190.425781 C 164.761719 190.988281 164.679688 191.542969 164.554688 192.09375 C 164.425781 192.644531 164.253906 193.175781 164.03125 193.695312 C 163.8125 194.214844 163.546875 194.710938 163.238281 195.183594 C 162.933594 195.660156 162.585938 196.101562 162.199219 196.515625 C 161.816406 196.925781 161.398438 197.304688 160.949219 197.640625 C 160.226562 198.207031 159.410156 198.488281 158.496094 198.492188 Z M 160.210938 186.417969 C 160.035156 186.414062 159.878906 186.472656 159.742188 186.585938 C 158.449219 187.542969 157.617188 188.808594 157.246094 190.375 C 156.875 191.941406 157.054688 193.445312 157.78125 194.882812 C 157.875 195.128906 158.046875 195.285156 158.300781 195.351562 C 158.566406 195.417969 158.808594 195.367188 159.023438 195.195312 C 159.335938 194.964844 159.625 194.710938 159.890625 194.429688 C 160.15625 194.148438 160.394531 193.84375 160.605469 193.519531 C 160.820312 193.195312 161 192.855469 161.152344 192.5 C 161.304688 192.144531 161.425781 191.777344 161.511719 191.402344 C 161.597656 191.023438 161.652344 190.640625 161.671875 190.253906 C 161.691406 189.867188 161.679688 189.484375 161.628906 189.097656 C 161.582031 188.714844 161.5 188.335938 161.382812 187.96875 C 161.269531 187.597656 161.121094 187.242188 160.945312 186.898438 C 160.828125 186.65625 160.636719 186.507812 160.375 186.449219 C 160.320312 186.433594 160.265625 186.421875 160.210938 186.417969 Z M 155.726562 190.019531 Z M 155.726562 190.019531 " fill-opacity="1" fill-rule="nonzero"/></svg>